<?xml version="1.0" standalone="no"?>
<!DOCTYPE svg PUBLIC "-//W3C//DTD SVG 20010904//EN"
 "http://www.w3.org/TR/2001/REC-SVG-20010904/DTD/svg10.dtd">
<svg version="1.0" xmlns="http://www.w3.org/2000/svg"
 width="360.000000pt" height="360.000000pt" viewBox="0 0 360.000000 360.000000"
 preserveAspectRatio="xMidYMid meet">

<g transform="translate(0.000000,360.000000) scale(0.100000,-0.100000)"
fill="#000000" stroke="none">
<path d="M745 3480 c-83 -13 -136 -30 -220 -70 -190 -92 -330 -263 -392 -480
-17 -61 -18 -126 -18 -1130 l0 -1065 23 -80 c74 -254 263 -443 519 -517 l78
-23 1065 0 c1004 0 1069 1 1130 18 217 62 388 202 480 392 80 166 75 80 75
1275 l0 1065 -23 78 c-73 253 -259 441 -512 519 l-75 22 -1040 2 c-572 1
-1062 -2 -1090 -6z m2130 -235 c179 -47 323 -191 370 -370 23 -89 23 -2061 0
-2150 -47 -179 -191 -323 -370 -370 -89 -23 -2061 -23 -2150 0 -179 47 -323
191 -370 370 -23 89 -23 2061 0 2150 46 177 190 322 366 369 83 23 2068 23
2154 1z"/>
<path d="M2605 2903 c-82 -43 -125 -113 -125 -203 0 -66 16 -107 59 -153 136
-147 384 -48 384 153 0 85 -47 161 -125 201 -47 24 -150 25 -193 2z"/>
<path d="M1657 2690 c-350 -63 -619 -304 -724 -647 -24 -79 -27 -103 -27 -243
0 -140 3 -164 27 -243 95 -310 314 -529 624 -624 79 -24 103 -27 243 -27 140
0 164 3 243 27 310 95 529 314 624 624 24 79 27 103 27 243 0 140 -3 164 -27
243 -95 310 -318 532 -624 623 -69 20 -116 27 -213 29 -69 2 -147 0 -173 -5z
m361 -253 c41 -14 99 -41 130 -59 72 -42 188 -158 230 -230 125 -211 125 -485
0 -696 -42 -72 -158 -188 -230 -230 -211 -125 -485 -125 -696 0 -72 42 -188
158 -230 230 -60 102 -85 189 -90 318 -5 136 11 218 63 325 67 137 173 243
311 310 108 53 170 65 314 61 104 -2 137 -7 198 -29z"/>
</g>
</svg>
